<svg width="36" height="36" viewBox="0 0 36 36" fill="none" xmlns="http://www.w3.org/2000/svg">
<path d="M27 31.5C29.4853 31.5 31.5 29.4853 31.5 27C31.5 24.5147 29.4853 22.5 27 22.5C24.5147 22.5 22.5 24.5147 22.5 27C22.5 29.4853 24.5147 31.5 27 31.5Z" stroke="#483AD0" stroke-width="2" stroke-linecap="round" stroke-linejoin="round"/>
<path d="M9 13.5C11.4853 13.5 13.5 11.4853 13.5 9C13.5 6.51472 11.4853 4.5 9 4.5C6.51472 4.5 4.5 6.51472 4.5 9C4.5 11.4853 6.51472 13.5 9 13.5Z" stroke="#483AD0" stroke-width="2" stroke-linecap="round" stroke-linejoin="round"/>
<path d="M9 31.5V13.5C9 17.0804 10.4223 20.5142 12.9541 23.0459C15.4858 25.5777 18.9196 27 22.5 27" stroke="#483AD0" stroke-width="2" stroke-linecap="round" stroke-linejoin="round"/>
</svg>
