<svg width="20" height="20" viewBox="0 0 20 20" fill="none" xmlns="http://www.w3.org/2000/svg">
<g clip-path="url(#clip0)">
<path d="M15.8333 0.833374L19.1667 4.16671L15.8333 7.50004" stroke="#BDBDBD" stroke-width="2" stroke-linecap="round" stroke-linejoin="round"/>
<path d="M12.5 4.16663H19.1667" stroke="#BDBDBD" stroke-width="2" stroke-linecap="round" stroke-linejoin="round"/>
<path d="M18.3333 14.1V16.6C18.3343 16.8321 18.2868 17.0618 18.1938 17.2745C18.1008 17.4871 17.9644 17.678 17.7934 17.8349C17.6224 17.9918 17.4205 18.1113 17.2006 18.1856C16.9808 18.26 16.7478 18.2876 16.5167 18.2667C13.9524 17.9881 11.4892 17.1118 9.32502 15.7084C7.31154 14.4289 5.60446 12.7218 4.32502 10.7084C2.91666 8.53438 2.04022 6.0592 1.76668 3.48337C1.74586 3.25293 1.77324 3.02067 1.8471 2.80139C1.92095 2.58211 2.03966 2.38061 2.19565 2.20972C2.35165 2.03883 2.54152 1.9023 2.75317 1.80881C2.96483 1.71532 3.19363 1.66692 3.42502 1.66671H5.92502C6.32944 1.66273 6.72151 1.80594 7.02815 2.06965C7.33479 2.33336 7.53508 2.69958 7.59168 3.10004C7.6972 3.9001 7.89289 4.68565 8.17502 5.44171C8.28714 5.73998 8.3114 6.06414 8.24494 6.37577C8.17847 6.68741 8.02407 6.97347 7.80002 7.20004L6.74168 8.25837C7.92798 10.3447 9.65539 12.0721 11.7417 13.2584L12.8 12.2C13.0266 11.976 13.3126 11.8216 13.6243 11.7551C13.9359 11.6887 14.2601 11.7129 14.5583 11.825C15.3144 12.1072 16.1 12.3029 16.9 12.4084C17.3048 12.4655 17.6745 12.6694 17.9388 12.9813C18.2031 13.2932 18.3435 13.6914 18.3333 14.1Z" stroke="#BDBDBD" stroke-width="2" stroke-linecap="round" stroke-linejoin="round"/>
</g>
<defs>
<clipPath id="clip0">
<rect width="20" height="20" fill="white"/>
</clipPath>
</defs>
</svg>
