<svg width="16" height="16" viewBox="0 0 16 16" fill="none" xmlns="http://www.w3.org/2000/svg">
<path d="M14.6666 8H10.6666L9.33331 10H6.66665L5.33331 8H1.33331" stroke="#828282" stroke-width="2" stroke-linecap="round" stroke-linejoin="round"/>
<path d="M3.63331 3.40669L1.33331 8.00002V12C1.33331 12.3536 1.47379 12.6928 1.72384 12.9428C1.97389 13.1929 2.31302 13.3334 2.66665 13.3334H13.3333C13.6869 13.3334 14.0261 13.1929 14.2761 12.9428C14.5262 12.6928 14.6666 12.3536 14.6666 12V8.00002L12.3666 3.40669C12.2563 3.18455 12.0861 2.9976 11.8753 2.86687C11.6645 2.73615 11.4214 2.66682 11.1733 2.66669H4.82665C4.57859 2.66682 4.33549 2.73615 4.12468 2.86687C3.91386 2.9976 3.7437 3.18455 3.63331 3.40669V3.40669Z" stroke="#828282" stroke-width="2" stroke-linecap="round" stroke-linejoin="round"/>
</svg>
