<svg width="12" height="10" viewBox="0 0 12 10" fill="none" xmlns="http://www.w3.org/2000/svg">
<path d="M1.56348 10H0.250977V0.046875H1.56348V10ZM5.38223 6.10352V10H4.06973V0.046875H7.74062C8.82982 0.046875 9.68203 0.32487 10.2973 0.880859C10.9171 1.43685 11.227 2.17285 11.227 3.08887C11.227 4.05501 10.9239 4.80013 10.3178 5.32422C9.71621 5.84375 8.8526 6.10352 7.72695 6.10352H5.38223ZM5.38223 5.03027H7.74062C8.44245 5.03027 8.98021 4.86621 9.35391 4.53809C9.7276 4.2054 9.91445 3.72689 9.91445 3.10254C9.91445 2.51009 9.7276 2.03613 9.35391 1.68066C8.98021 1.3252 8.46751 1.14062 7.81582 1.12695H5.38223V5.03027Z" fill="#828282"/>
</svg>
